<?xml version="1.0" encoding="UTF-8"?>
<svg width="48" height="48" version="1.1" viewBox="0 0 12.7 12.7" xmlns="http://www.w3.org/2000/svg">
 <g transform="matrix(2,0,0,2,-6.35,-6.35)">
  <path d="m3.175 3.175v6.35h3.175a3.175 3.175 0 0 0 3.175-3.175 3.175 3.175 0 0 0-3.175-3.175z" fill="#344F6F" stroke-width="2.2777"/>
  <path d="m4.2333 4.2333v4.2333h1.0583v-0.28353a2.1167 2.1167 0 0 0 1.0583 0.28353 2.1167 2.1167 0 0 0 2.1167-2.1167 2.1167 2.1167 0 0 0-2.1167-2.1167 2.1167 2.1167 0 0 0-1.0583 0.28388v-0.28388z" fill="#FB80FF" stroke-width="1.0737"/>
 </g>
</svg>
